<?xml version="1.0" encoding="utf-8"?>
<!-- Generator: Adobe Illustrator 24.0.1, SVG Export Plug-In . SVG Version: 6.00 Build 0)  -->
<svg version="1.1" id="圖層_1" xmlns="http://www.w3.org/2000/svg" xmlns:xlink="http://www.w3.org/1999/xlink" x="0px" y="0px"
	 viewBox="0 0 186.8 103.7" style="enable-background:new 0 0 186.8 103.7;" xml:space="preserve">
<style type="text/css">
	.st0{enable-background:new    ;}
	.st1{fill:#40443E;}
	.st2{fill:#438138;stroke:#361C12;stroke-width:4;stroke-miterlimit:10;}
	.st3{fill:#361C12;}
</style>
<title>資產 1</title>
<g id="圖層_2_1_">
	<g id="圖層_1-2">
		<g class="st0">
			<path class="st1" d="M16.9,38c0.6,0.6,1,1.4,1,2.2c0,0.7-0.2,1.4-0.7,1.9c-0.7,0.7-1.6,1.1-2.5,1.1c-0.8,0-1.5-0.3-2.1-0.8
				c-2.6-2.5-6.2-5.5-8.8-7C3,34.8,2.6,34,2.6,33.2c0-0.7,0.2-1.4,0.8-1.9c0.6-0.7,1.4-1,2.2-1c0.6,0,1.4,0.2,2,0.6
				C10.5,32.5,13.9,35.2,16.9,38z M16.4,55.1c0,0.2,0,0.3-0.1,0.5c-1.5,7.4-4.5,16.7-7.7,22.8c-0.6,1.2-1.6,1.9-2.9,1.9
				c-0.6,0-1-0.1-1.6-0.3c-1-0.6-1.6-1.5-1.6-2.4c0-0.5,0.2-1,0.4-1.5c3-5.5,6.2-14.7,7.5-21.6c0.4-1.2,1.4-1.9,2.6-1.9
				c0.3,0,0.6,0,1,0.1C15.4,53,16.4,53.9,16.4,55.1z M16.5,23.9c-0.8,0-1.5-0.3-2.1-0.8c-2.4-2.2-6.2-5.6-8.6-7.3
				c-0.6-0.4-0.9-1-0.9-1.7c0-0.7,0.2-1.5,0.9-2.1c0.6-0.6,1.4-1,2.3-1c0.6,0,1.4,0.2,2.1,0.6c2.6,1.9,5.6,4.3,8.6,7.3
				c0.6,0.5,0.9,1.2,0.9,2.1c0,0.6-0.2,1.4-0.9,1.9C18.2,23.6,17.3,23.9,16.5,23.9z M43.7,24.9c1.4,0,2.2,1,2.2,2.6
				c0,1.5-0.8,2.6-2.2,2.6h-6.9c2.1,6.2,5.5,11.5,9.3,16.5c0.5,0.6,0.8,1.5,0.8,2.2c0,0.7-0.2,1.4-0.8,2c-0.6,0.5-1.3,0.8-1.9,0.8
				c-0.8,0-1.5-0.4-2-1c-2.7-3.8-5.4-9.6-7-15.3c0.5,3.2,1,9.6,1,12.8v31.7c0,1.5-1.1,2.3-2.9,2.3c-1.8,0-2.9-0.8-2.9-2.3V54
				c0-3.9,0.6-10.1,1.2-16.4c-1.8,8.9-5.2,18-9.8,24.7c-0.6,0.8-1.4,1.3-2.3,1.3c-0.6,0-1.2-0.2-1.8-0.5c-0.8-0.5-1.2-1.2-1.2-2.1
				c0-0.6,0.2-1.3,0.8-2c5.6-7.5,10-18.4,12.2-28.9h-8.1c-1.4,0-2.2-1.2-2.2-2.6c0-1.6,0.7-2.6,2.2-2.6h9V12.5c0-1.4,1.1-2.2,3-2.2
				c1.8,0,2.8,0.8,2.8,2.2v12.4H43.7z"/>
			<path class="st1" d="M136,24.4c0,1.5-1,2.2-2.9,2.2c-1.8,0-2.9-0.7-2.9-2.2v-3.3h-18.1c-1.3,0-2.1-1-2.1-2.5
				c0-1.5,0.8-2.5,2.1-2.5h18.1v-3.8c0-1.5,1.1-2.2,2.9-2.2c1.9,0,2.9,0.7,2.9,2.2v3.8h20v-3.8c0-1.5,1-2.2,2.8-2.2
				c1.9,0,3,0.7,3,2.2v3.8h18.7c1.4,0,2.2,0.9,2.2,2.5c0,1.5-0.8,2.5-2.2,2.5h-18.7v3.3c0,1.5-1,2.2-3,2.2c-1.8,0-2.8-0.7-2.8-2.2
				v-3.3h-20V24.4z M165.1,30c3.6,0,5.7,1.6,5.7,4c0,1.4-0.8,3.1-2.6,4.8c-6.6,6.2-15.1,11.9-24.8,16.4c2.6-0.2,5.1-0.4,8-0.4H171
				c4.8,0,7.2,1.9,7.2,6.4v12.3c0,4.8-2.2,6.5-7.2,6.5h-36.8c-5,0-7.2-1.7-7.2-6.5v-7c0-2.1,0.1-3.7,0.7-5.2
				c-4.4,1.4-9,2.6-13.7,3.6c-0.2,0.1-0.6,0.1-0.8,0.1c-1.4,0-2.3-0.8-2.7-2.2c-0.1-0.3-0.1-0.6-0.1-0.8c0-1.3,0.8-2.4,2.4-2.7
				c10.7-1.9,20.6-5.2,29.1-9.4c-3-2.4-6.2-4.5-8.6-6.1c-0.6-0.4-1-1.1-1-1.8c0-0.5,0.2-1.2,0.8-1.7s1.3-0.8,2.1-0.8
				c0.6,0,1.3,0.2,2,0.5c3,1.6,6.6,4.2,10.2,7.1c5.8-3.3,10.9-7,15-10.9c0.5-0.5,0.7-0.8,0.7-1c0-0.4-0.6-0.5-1.5-0.5h-24.8
				c-6,4.9-12.8,8.8-20.9,11.9c-0.5,0.2-1,0.2-1.4,0.2c-1.1,0-2-0.6-2.4-1.8c-0.2-0.4-0.2-0.8-0.2-1.1c0-1.2,0.8-2.2,2.1-2.6
				c10.1-3.7,18.4-8.5,25.1-16.5c0.6-0.6,1.4-0.9,2.3-0.9c0.6,0,1.4,0.2,2,0.5c1,0.5,1.4,1.2,1.4,2c0,0.5-0.2,1.2-0.8,1.7
				c-0.6,0.7-1.2,1.3-1.8,1.9H165.1z M169.8,74.7c1.5,0,2.3-0.4,2.3-2V61.9c0-1.5-0.8-1.9-2.3-1.9h-34.5c-1.4,0-2.2,0.4-2.2,1.9
				v10.8c0,1.6,0.8,2,2.2,2H169.8z"/>
		</g>
		<path class="st2" d="M88.6,28.1c-0.8,4.1-0.9,3.7-2,8.7c-1.5,7.2-1.1,8-2.4,12.8c-0.7,2.8-1.7,5.5-2.9,8.1c-2,4.2-2.8,4.4-4.4,7.6
			c-4.1,8-2.5,14.2-5.4,14.9c-1.5,0.4-3.1-1-3.5-1.4c-2.1-1.9-1.7-4.6-2.4-7.6s-1.9-3.2-6.4-9.5c-4.8-6.6-7.2-9.9-7.7-12.2
			c-0.8-4.3,1-7.8,4.2-13.9c2.8-5.5,6.4-9.6,10-18.1l0,0c0.5-1.8,1.2-3.5,2.2-5.1c1.3-2.2,3.2-4,5.4-5.2c2.2-1.1,3.3-0.8,4.8-2.4
			c1.2-1.2,1-1.8,2.1-2.5c1.6-0.8,3.4-0.8,5-0.1c1.6,0.7,1.5,1.5,4.3,4c2.2,1.9,2.4,1.7,2.9,2.5c1.1,2.1-0.7,4.1-2.2,8.6
			C89.1,21.1,89.9,20.9,88.6,28.1z"/>
		<path class="st3" d="M82.8,16.2c-0.8,2-1.8,3.9-2.7,5.9c-1.1,1.9-2,3.8-3,5.7c-1.9,3.8-3.8,7.7-5.4,11.6c-1.7,3.9-3,7.9-3.8,12.1
			c-0.3,2.1-0.3,4.2-0.1,6.3c0.1,2.1,0.3,4.3,0.7,6.4c-0.8-2-1.3-4.1-1.7-6.3c-0.2-2.2-0.2-4.4,0.1-6.5C67.7,47.1,69,43,70.8,39
			c1.7-4,3.5-7.9,5.5-11.7c1-1.9,2-3.8,3-5.7S81.6,18,82.8,16.2z"/>
		<path class="st3" d="M71.4,17.2c1.1,0.6,2.1,1.3,2.9,2.2c0.9,0.9,1.6,1.9,2.1,3.1c0.6,1.2,0.9,2.5,0.8,3.8
			c-0.2,1.3-0.8,2.5-1.7,3.4l-0.2-0.1c-0.1-1.3,0-2.4-0.1-3.4c0-1.1-0.1-2.1-0.3-3.2c-0.3-1.1-0.8-2.1-1.4-3c-0.6-1-1.4-1.9-2.2-2.6
			L71.4,17.2z"/>
		<path class="st3" d="M63,29.6c1.4,1,2.6,2.1,3.6,3.4c1.1,1.3,1.9,2.9,2.5,4.5c0.7,1.6,1,3.4,0.9,5.2c-0.2,1.7-0.9,3.4-2,4.8
			l-0.2-0.1c0.1-1.7,0.2-3.3,0.2-4.8c0-1.5-0.1-3.1-0.4-4.6c-0.4-1.5-1-3-1.8-4.3c-0.8-1.4-1.8-2.7-3-3.8L63,29.6z"/>
		<path class="st3" d="M54.5,45.6c3.7,1.1,7,3.2,9.6,6c1.4,1.4,2.5,3,3.3,4.8c0.7,1.8,1,3.8,0.9,5.7h-0.2c-0.9-1.7-1.6-3.4-2.5-4.9
			c-0.8-1.6-1.7-3.1-2.7-4.6c-1.1-1.5-2.4-2.8-3.8-3.9c-1.4-1.2-3-2.2-4.7-3L54.5,45.6z"/>
		<path class="st3" d="M83.8,26.4c-0.6,0.4-1.2,0.8-1.7,1.2s-1.2,0.8-1.8,1.1c-0.5,0.4-1.2,0.8-1.8,1c-0.7,0.2-1.5,0.2-2.3,0
			l-0.1-0.2c0.4-0.7,0.9-1.3,1.5-1.7c0.6-0.3,1.3-0.6,2-0.7c0.7-0.2,1.3-0.4,2-0.6s1.4-0.4,2.1-0.5L83.8,26.4z"/>
		<path class="st3" d="M80.7,37c-1.2,0.3-2.4,0.8-3.5,1.4c-1.1,0.5-2.1,1.2-3,2c-0.9,0.8-1.6,1.8-2.4,2.6s-1.7,1.7-2.7,2.6l-0.2-0.1
			c0.1-1.4,0.5-2.7,1.3-3.8c0.8-1.1,1.8-2,3-2.6c1.1-0.7,2.3-1.3,3.6-1.7c1.2-0.4,2.5-0.6,3.8-0.6L80.7,37z"/>
		<path class="st3" d="M82.9,46.7c-3.6,0.9-6.8,2.7-9.5,5.3c-1.2,1.3-2.3,2.7-3.2,4.3c-1,1.5-1.9,3.1-2.7,4.8h-0.2
			c-0.1-2,0.3-3.9,1.2-5.7c0.9-1.8,2.2-3.3,3.8-4.5c1.5-1.2,3.2-2.2,5-2.9c1.8-0.7,3.6-1.2,5.5-1.4L82.9,46.7z"/>
	</g>
</g>
</svg>
